<?xml version="1.0" encoding="utf-8"?>
<!-- Generator: Adobe Illustrator 19.0.0, SVG Export Plug-In . SVG Version: 6.00 Build 0)  -->
<svg version="1.1" id="Layer_1" xmlns="http://www.w3.org/2000/svg" xmlns:xlink="http://www.w3.org/1999/xlink" x="0px" y="0px"
	 viewBox="-202 294 206 206" style="enable-background:new -202 294 206 206;" xml:space="preserve">
<style type="text/css">
	.st0{opacity:0.33;fill:#FFFFFF;}
	.st1{clip-path:url(#SVGID_2_);}
	.st2{fill:#DCC5A1;}
	.st3{fill:#EDD9B4;}
	.st4{clip-path:url(#SVGID_4_);fill:#BC9F82;}
	.st5{fill:#1C3665;}
	.st6{fill:#CCAE8B;}
	.st7{fill:#BC9F82;}
	.st8{fill:#D9BF9F;}
	.st9{fill:#422F18;}
</style>
<circle class="st0" cx="-98" cy="396.2" r="100"/>
<g>
	<g>
		<defs>
			<circle id="SVGID_1_" cx="-98" cy="396.2" r="100"/>
		</defs>
		<clipPath id="SVGID_2_">
			<use xlink:href="#SVGID_1_"  style="overflow:visible;"/>
		</clipPath>
		<g class="st1">
			<g>
				<g>
					<path class="st2" d="M-98,422.8v73.4h-39.9c-0.6-0.3-1-0.4-1-0.4c0-39.4,24.4-42.3,24.4-42.3c2.4,0,4-3.1,5-7.9
						c0.2-0.7,0.3-1.5,0.4-2.3c0.2-1.3,0.4-2.8,0.6-4.3c0.1-0.9,0.2-1.8,0.3-2.7c0.4-4.5,0.5-9.4,0.5-14
						C-107.7,422.3-102.3,422.8-98,422.8"/>
					<path class="st3" d="M-57,495.8c0,0-0.4,0.1-0.9,0.4H-98v-73.4h0.1c4.3,0,9.7-0.5,9.7-0.5c0,4.6,0.1,9.5,0.5,13.9
						c0.1,0.9,0.2,1.8,0.2,2.7c0.2,1.5,0.3,3,0.6,4.4l0,0c0.1,0.6,0.2,1.2,0.3,1.7c1,5.1,2.6,8.5,5.2,8.5
						C-81.4,453.5-57,456.5-57,495.8"/>
					<g>
						<g>
							<defs>
								<rect id="SVGID_3_" x="-109" y="436.2" width="22.1" height="13.1"/>
							</defs>
							<clipPath id="SVGID_4_">
								<use xlink:href="#SVGID_3_"  style="overflow:visible;"/>
							</clipPath>
							<path class="st4" d="M-86.9,443.3L-86.9,443.3c-1,1.6-4.4,6-11.1,6l0,0c-6.3,0-10-4.6-11-6c0.2-1.3,0.4-2.8,0.6-4.3
								c0.1-0.9,0.2-1.8,0.3-2.7c3.1,0.8,6.5,1.3,10.1,1.3h0.1c3.7-0.1,7.1-0.6,10.3-1.4c0.1,0.9,0.2,1.8,0.2,2.7
								C-87.3,440.4-87.1,441.9-86.9,443.3"/>
						</g>
					</g>
					<g>
						<path class="st5" d="M-57,495.8c0,0-0.3,0.1-1,0.4h-80c-0.6-0.3-0.9-0.4-0.9-0.4c0-26.4,10.9-36.4,18.2-40.1
							c1.8-0.9,3.3-1.4,4.4-1.7c0.3-0.1,0.6-0.2,0.8-0.2c0,0.1-0.1,0.2-0.1,0.4c0,0,10.1,25.9,18,25.8c7.8-0.1,17.3-25.8,17.3-25.8
							c0-0.1,0-0.3-0.1-0.4c0.3,0,0.6,0.1,1,0.3c1.2,0.3,2.7,0.9,4.4,1.8C-67.8,459.6-57,469.6-57,495.8"/>
						<path class="st5" d="M-116.2,496.2h-4.5v-40.6c1.8-0.9,3.3-1.4,4.4-1.7C-116.2,461.8-116.2,487.3-116.2,496.2"/>
						<path class="st5" d="M-74.9,496.2h-4.5V454c1.2,0.3,2.7,0.9,4.4,1.8C-74.9,465.1-74.9,487.9-74.9,496.2"/>
					</g>
				</g>
				<g>
					<g>
						<g>
							<g>
								<path class="st6" d="M-97.8,338.7v105.1h-0.5c-15.4-0.1-35.2-11-38.7-30c0,0.9-11.9-3.4-12.6-11.7
									c-0.7-8.6,7.9-10.3,10.8-4.9c0-0.4-0.1-0.9-0.1-1.3c-1.8-23.1-0.8-57.2,40.7-57.2h0.1C-97.9,338.7-97.8,338.7-97.8,338.7"/>
								<path class="st7" d="M-146.8,398.4c2.1-3.3,5.3-1.9,6.1-1.2c0.8,0.8,1.5,1.9,1,3.8c-0.3,1.1-1.5,1.2-1.2,2.9
									c0.3,1.9,1.2,2,1.7,2.4s1.1,0.8,1.4,1.6c0.3,0.8,0.4,1.6,0.2,2.4c-0.3,1.4-2.3,0.3-3.6-0.3c-0.9-0.4-3.7-2.8-4.4-3.6
									C-147.4,404.5-148.2,400.6-146.8,398.4"/>
							</g>
							<g>
								<path class="st8" d="M-46.5,402.1c-0.7,8.3-12.6,12.6-12.6,11.7c-3.4,19-23.3,30-38.6,30h-0.5V338.7c0.1,0,0.1,0,0.2,0h0.1
									c41.7,0,42.5,34.5,40.7,57.6c0,0.3,0,0.6-0.1,0.9C-54.4,391.7-45.8,393.4-46.5,402.1"/>
								<path class="st7" d="M-49.2,398.4c-2.1-3.3-5.3-1.9-6.1-1.2c-0.8,0.8-1.5,1.9-1,3.8c0.3,1.1,1.5,1.2,1.2,2.9
									c-0.3,1.9-1.2,2-1.7,2.4s-1.1,0.8-1.4,1.6c-0.3,0.8-0.4,1.6-0.2,2.4c0.3,1.4,2.3,0.3,3.6-0.3c0.9-0.4,3.7-2.8,4.4-3.6
									C-48.6,404.5-47.8,400.6-49.2,398.4"/>
							</g>
						</g>
						<g>
							<path class="st2" d="M-98.5,348.6c-13.9,0-24.1,4-30.3,12c-8.5,11.2-8.2,28.2-5,40.4c1,3.7,1.5,13.8,2.1,17.5
								c3,16.5,21.2,25.3,33.2,25.3c0.1,0,0.2,0,0.3,0v-95.1C-98.3,348.7-98.4,348.6-98.5,348.6"/>
							<path class="st3" d="M-68.3,360.7c-6.1-7.9-16.2-12-29.9-12v95.1c13.7-0.2,30.1-9.8,32.9-25.3c0.7-3.7,1.2-13.7,2.1-17.5
								C-60,388.8-59.6,371.8-68.3,360.7"/>
						</g>
					</g>
					<g>
						<g>
							<path class="st9" d="M-97.8,427.7c-0.4,6.2-11.2,5.7-16.8,5.7c2.8-2.8,10.1-9.1,15.7-9.1C-98.9,424.3-97.8,426.8-97.8,427.7"
								/>
							<path class="st9" d="M-98.6,427.7c0.4,6.2,11.2,5.7,16.8,5.7c-2.8-2.8-10.1-9.1-15.7-9.1C-97.5,424.3-98.7,426.8-98.6,427.7"
								/>
						</g>
						<path class="st9" d="M-59.1,413.8c-1.6,3-5.7,3.5-8.8,7.7s-17.4,11.2-17.4,11.2s-0.3,6.1-8.9,6.2c-1.6,0-2.7-2.6-3.9-2.6l0,0
							l0,0c-1.2-0.1-2.4,2.6-3.9,2.6c-8.6,0-8.9-6.2-8.9-6.2s-14.3-7.1-17.5-11.2c-3.1-4.2-7.2-4.7-8.8-7.7
							c-1.2-2.2,2,10.7,3.2,13.5c1.1,2.8,3.5,12,6.4,16.9c2.8,4.9,4.2,5.1,5.2,6.3s0-5.6,0-5.6s3.9,6.7,5.4,8.3
							c1.5,1.6,10.9,7.9,17.1,9.9c0.5,0.2,0.9,0.3,1.3,0.4v0.1c0.1,0,0.1,0,0.2-0.1h0.1l0,0l0,0l0,0l0,0h0.1c0.1,0,0.2,0,0.2,0.1
							v-0.1c0.4-0.1,0.9-0.2,1.3-0.4c6.2-2.1,15.6-8.3,17.1-9.9c1.6-1.6,5.4-8.3,5.4-8.3s-1,6.7,0,5.6c1-1.2,2.3-1.4,5.2-6.3
							c2.9-4.9,5.3-14.1,6.4-16.9C-61.2,424.5-57.9,411.5-59.1,413.8"/>
					</g>
					<path class="st9" d="M-56.1,405.3c2.5-8.8,4.8-23.4,4.8-30.2c0-6.8-1.3-16-3.9-20.2c-3.5-5.5-3.8-4-3.8-4s3.5-15-18.5-18.4
						c-3.6-0.6-8.6-0.3-8.6-0.3l3,3.1c0,0-11.6-4-26.9-1.6c-11.1,1.7-18.7,7.3-25,16.4c-4.2,6.1-5.5,15-5.5,15l8.1-11
						c0,0-10.5,11.4-8.1,29.6c3.4,26.2,15.4,31.1,15.4,31.1s-8.2-15.7-2.8-25.9c9.1-17.1,25.4-17.6,25.4-17.6s-15.2,1.4-19.3,18
						c-0.3,1.1,0.8-4.6,7.7-7.3c4.8-1.9,11.5-1.2,19.2-4.7c7-3.3,19.3-12.3,19.3-12.3s-16.4,6.2-21.1,10.3
						c-8.5,7.5-9.5,17.6-9.5,17.6s4.8-7.8,16.5-12.3c6.4-2.5,18-6.8,18-6.8s-8.6-0.6-14.6,4.7c-4.9,4.2-3.5,13.3-2.3,14.9
						c0,0-0.4-6.9,14.3-11.1c8.5-2.5,9.8-7.4,9.8-7.4s-0.1,4.8,1.1,7.9c1.3,3.6,5.1,5.9,5.3,9.2c0.5,6-2.7,17.3-2.7,17.3
						L-56.1,405.3z"/>
				</g>
			</g>
		</g>
	</g>
</g>
</svg>
